<?xml version="1.0" encoding="utf-8"?>
<!-- Generator: Adobe Illustrator 25.4.1, SVG Export Plug-In . SVG Version: 6.00 Build 0)  -->
<svg version="1.1" id="Layer_1" xmlns="http://www.w3.org/2000/svg" xmlns:xlink="http://www.w3.org/1999/xlink" x="0px" y="0px"
	 viewBox="0 0 800 800" style="enable-background:new 0 0 800 800;" xml:space="preserve">
<style type="text/css">
	.st0{fill:none;stroke:#BF1759;stroke-width:44;stroke-linecap:round;stroke-linejoin:round;stroke-miterlimit:133.3333;}
</style>
<path class="st0" d="M100,486.7v-82.3c0-38.3,0-57.4,4.9-75.1c4.4-15.6,11.6-30.3,21.2-43.3c10.9-14.7,26-26.5,56.2-50l86.7-67.4
	c46.8-36.4,70.3-54.7,96.1-61.7c22.8-6.2,46.9-6.2,69.7,0c25.9,7,49.3,25.2,96.1,61.7l86.7,67.4c30.2,23.5,45.3,35.3,56.2,50
	c9.6,13,16.8,27.7,21.2,43.3c4.9,17.6,4.9,36.8,4.9,75.1v82.3c0,74.7,0,112-14.5,140.5c-12.8,25.1-33.2,45.5-58.3,58.3
	C598.7,700,561.3,700,486.7,700H313.3c-74.7,0-112,0-140.5-14.5c-25.1-12.8-45.5-33.2-58.3-58.3C100,598.7,100,561.3,100,486.7z
	 M404,377v75l55.7-14.5 M539,452c0,74.6-60.4,135-135,135c-74.6,0-135-60.4-135-135c0-74.6,60.4-135,135-135
	C478.6,317,539,377.4,539,452z"/>
</svg>
