<?xml version="1.0" encoding="utf-8"?>
<!-- Generator: Adobe Illustrator 25.4.1, SVG Export Plug-In . SVG Version: 6.00 Build 0)  -->
<svg version="1.1" xmlns="http://www.w3.org/2000/svg" xmlns:xlink="http://www.w3.org/1999/xlink" x="0px" y="0px"
	 viewBox="0 0 1200 1200" style="enable-background:new 0 0 1200 1200;" xml:space="preserve">
<style type="text/css">
	.st0{fill:#BF1759;stroke:#BF1759;stroke-miterlimit:10;}
</style>
<g id="Layer_3">
</g>
<g id="Layer_4">
	<g>
		<path class="st0" d="M321,801.85v33.55h81.17v-52.69h-60.9C330.12,782.71,321,791.32,321,801.85z"/>
		<path class="st0" d="M473.66,782.71h-64.6v52.69h84.87v-33.55C493.92,791.32,484.8,782.71,473.66,782.71z"/>
		<path class="st0" d="M321,884.15c0,10.53,9.12,19.14,20.27,19.14h60.9V843H321V884.15z"/>
		<path class="st0" d="M409.06,903.29h64.6c11.15,0,20.27-8.61,20.27-19.14V843h-84.87V903.29z"/>
		<path class="st0" d="M678.42,753.04l-88.28-66.2V582.88c0-8.18-7.09-14.87-15.75-14.87h-29.33c-8.66,0-15.75,6.69-15.75,14.87
			v58.34l-99.8-74.84c-3.63-2.72-7.83-4.52-12.22-5.47c-9.47-2.4-20.13-0.74-28.07,5.24L140.87,753.36
			c-12.32,9.29-13.58,25.58-2.8,36.19l1.63,1.61c10.78,10.62,29.69,11.7,42.02,2.41l227.54-171.53l228.43,171.29
			c12.35,9.26,31.26,8.14,42.01-2.5l1.63-1.61C692.08,778.59,690.77,762.3,678.42,753.04z"/>
	</g>
	<g>
		<path class="st0" d="M772.54,678.03v30.61h67.17v-48.07h-50.4C780.08,660.57,772.54,668.42,772.54,678.03z"/>
		<path class="st0" d="M898.87,660.57h-53.46v48.07h70.23v-30.61C915.64,668.42,908.09,660.57,898.87,660.57z"/>
		<path class="st0" d="M772.54,753.11c0,9.6,7.55,17.46,16.77,17.46h50.4v-55h-67.17V753.11z"/>
		<path class="st0" d="M845.41,770.56h53.46c9.22,0,16.77-7.86,16.77-17.46v-37.54h-70.23V770.56z"/>
		<path class="st0" d="M1068.32,633.5l-73.06-60.39v-94.83c0-7.46-5.87-13.57-13.03-13.57h-24.27c-7.17,0-13.03,6.11-13.03,13.57
			v53.22l-82.59-68.27c-3-2.48-6.48-4.13-10.11-4.99c-7.84-2.19-16.66-0.68-23.23,4.78L623.47,633.8
			c-10.2,8.47-11.24,23.33-2.32,33.02l1.35,1.47c8.92,9.68,24.57,10.67,34.77,2.2l188.3-156.47l189.03,156.26
			c10.22,8.45,25.87,7.42,34.76-2.28l1.35-1.47C1079.63,656.81,1078.54,641.95,1068.32,633.5z"/>
	</g>
	<g>
		<path class="st0" d="M498.12,480.26v23.83h56.14v-37.42h-42.12C504.42,466.67,498.12,472.78,498.12,480.26z"/>
		<path class="st0" d="M603.7,466.67h-44.68v37.42h58.7v-23.83C617.72,472.78,611.41,466.67,603.7,466.67z"/>
		<path class="st0" d="M498.12,538.7c0,7.48,6.31,13.59,14.02,13.59h42.12v-42.81h-56.14V538.7z"/>
		<path class="st0" d="M559.02,552.29h44.68c7.71,0,14.02-6.12,14.02-13.59v-29.22h-58.7V552.29z"/>
		<path class="st0" d="M745.32,445.6l-61.06-47.01v-73.82c0-5.81-4.9-10.56-10.89-10.56h-20.28c-5.99,0-10.89,4.75-10.89,10.56
			v41.43l-69.02-53.15c-2.51-1.93-5.42-3.21-8.45-3.89c-6.55-1.7-13.92-0.53-19.41,3.72L373.54,445.83
			c-8.52,6.6-9.39,18.16-1.94,25.7l1.13,1.14c7.46,7.54,20.54,8.31,29.06,1.71l157.37-121.81l157.99,121.64
			c8.54,6.58,21.62,5.78,29.05-1.78l1.13-1.14C754.77,463.74,753.86,452.17,745.32,445.6z"/>
	</g>
</g>
</svg>
