<?xml version="1.0" encoding="utf-8"?>
<!-- Generator: Adobe Illustrator 25.4.1, SVG Export Plug-In . SVG Version: 6.00 Build 0)  -->
<svg version="1.1" id="Layer_1" xmlns="http://www.w3.org/2000/svg" xmlns:xlink="http://www.w3.org/1999/xlink" x="0px" y="0px"
	 viewBox="0 0 2000 2000" style="enable-background:new 0 0 2000 2000;" xml:space="preserve">
<style type="text/css">
	.st0{fill:none;}
	.st1{fill:#BF1759;}
</style>
<rect class="st0" width="2000" height="2000"/>
<g>
	<path class="st1" d="M1455.82,1255.86c-38.18-20.94-61.89-60.99-61.89-104.53V914.24c0-87-27.8-169.47-80.39-238.5
		c-46.34-60.83-110.36-107.43-182.02-132.89c-3.01-69.94-60.85-125.92-131.51-125.92s-128.51,55.98-131.52,125.92
		c-71.66,25.47-135.68,72.07-182.02,132.89c-52.59,69.03-80.39,151.5-80.39,238.5v237.08c0,43.54-23.72,83.6-61.89,104.53
		c-34.09,18.7-55.27,54.47-55.27,93.35c0,58.71,47.76,106.47,106.47,106.47h251.6c13.33,72.37,76.86,127.39,153.03,127.39
		s139.69-55.01,153.03-127.39h251.6c58.71,0,106.47-47.76,106.47-106.47C1511.09,1310.33,1489.92,1274.56,1455.82,1255.86z
		 M1000,1526.56c-44.85,0-82.83-29.94-95.03-70.87h190.06C1082.83,1496.62,1044.85,1526.56,1000,1526.56z M1404.62,1399.17h-277.23
		H872.61H595.38c-27.55,0-49.96-22.41-49.96-49.96c0-18.25,9.94-35.03,25.94-43.8c56.27-30.86,91.23-89.91,91.23-154.09V914.24
		c0-149.14,99.91-282.38,242.96-324c13.49-3.92,22.04-17.16,20.09-31.07c-0.51-3.59-0.76-7.16-0.76-10.6
		c0-41.42,33.7-75.13,75.12-75.13c41.42,0,75.12,33.7,75.12,75.13c0,3.45-0.26,7.01-0.76,10.59c-1.96,13.91,6.59,27.16,20.08,31.08
		c143.05,41.63,242.97,174.86,242.97,324v237.08c0,64.18,34.96,123.22,91.23,154.09c16,8.77,25.93,25.56,25.93,43.8
		C1454.58,1376.76,1432.17,1399.17,1404.62,1399.17z"/>
	<path class="st1" d="M380.16,756.49c11.03-11.04,11.03-28.93,0-39.96c-11.04-11.04-28.93-11.04-39.96,0
		c-163.39,163.39-163.39,429.25,0,592.65c5.52,5.52,12.75,8.28,19.98,8.28c7.23,0,14.46-2.76,19.98-8.28
		c11.03-11.04,11.03-28.93,0-39.96C238.8,1127.85,238.8,897.85,380.16,756.49z"/>
	<path class="st1" d="M460.08,836.41c11.03-11.04,11.03-28.93,0-39.96c-11.04-11.04-28.93-11.04-39.96,0
		c-57.72,57.72-89.51,134.57-89.51,216.4c0,81.83,31.79,158.68,89.51,216.4c5.52,5.52,12.75,8.28,19.98,8.28s14.46-2.76,19.98-8.28
		c11.03-11.04,11.03-28.93,0-39.96C362.79,1092,362.79,933.7,460.08,836.41z"/>
	<path class="st1" d="M500.04,1149.33c5.52,5.52,12.75,8.28,19.98,8.28c7.23,0,14.46-2.76,19.98-8.28
		c11.03-11.04,11.03-28.93,0-39.96c-25.78-25.78-39.98-60.06-39.98-96.52c0-36.46,14.2-70.74,39.98-96.52
		c11.03-11.03,11.03-28.93,0-39.96c-11.04-11.04-28.93-11.04-39.96,0C424.79,951.63,424.79,1074.08,500.04,1149.33z"/>
	<path class="st1" d="M1659.8,716.53c-11.03-11.04-28.93-11.04-39.96,0c-11.04,11.04-11.04,28.93,0,39.96
		c141.36,141.36,141.36,371.36,0,512.72c-11.04,11.04-11.04,28.93,0,39.96c5.52,5.52,12.75,8.28,19.98,8.28s14.46-2.76,19.98-8.28
		C1823.2,1145.78,1823.19,879.92,1659.8,716.53z"/>
	<path class="st1" d="M1579.88,796.45c-11.03-11.04-28.93-11.04-39.96,0c-11.04,11.04-11.04,28.93,0,39.96
		c47.05,47.04,72.96,109.71,72.96,176.44c0,66.73-25.91,129.4-72.95,176.44c-11.04,11.04-11.04,28.93,0,39.96
		c5.52,5.52,12.75,8.28,19.98,8.28c7.23,0,14.46-2.76,19.98-8.28c57.72-57.72,89.51-134.57,89.51-216.4
		C1669.38,931.02,1637.6,854.17,1579.88,796.45z"/>
	<path class="st1" d="M1459.99,1149.33c5.52,5.52,12.75,8.28,19.98,8.28c7.23,0,14.46-2.76,19.98-8.28
		c36.46-36.45,56.53-84.92,56.53-136.48s-20.08-100.02-56.53-136.48c-11.04-11.04-28.93-11.03-39.96,0
		c-11.04,11.04-11.04,28.93,0,39.96c25.78,25.78,39.98,60.06,39.98,96.52c0,36.46-14.2,70.74-39.98,96.52
		C1448.96,1120.4,1448.96,1138.29,1459.99,1149.33z"/>
</g>
</svg>
